<?xml version="1.0" encoding="utf-8"?>
<!-- Generator: Adobe Illustrator 18.1.0, SVG Export Plug-In . SVG Version: 6.00 Build 0)  -->
<!DOCTYPE svg PUBLIC "-//W3C//DTD SVG 1.1//EN" "http://www.w3.org/Graphics/SVG/1.1/DTD/svg11.dtd">
<svg version="1.1" id="Layer_1" xmlns="http://www.w3.org/2000/svg" xmlns:xlink="http://www.w3.org/1999/xlink" x="0px" y="0px"
	 viewBox="0 0 600 110" enable-background="new 0 0 600 110" xml:space="preserve">
<g>
	<path fill="#FFFFFF" d="M506.3,52.1L506.3,52.1c0-7.3,5.4-13.2,13.2-13.2c4.8,0,7.6,1.6,10,3.9l-3.5,4.1c-2-1.8-3.9-2.9-6.5-2.9
		c-4.3,0-7.3,3.5-7.3,7.9v0.1c0,4.3,3,8,7.3,8c2.9,0,4.7-1.2,6.7-3l3.5,3.6c-2.6,2.8-5.5,4.5-10.4,4.5
		C511.8,65.1,506.3,59.4,506.3,52.1z"/>
	<path fill="#FFFFFF" d="M535.9,52.1L535.9,52.1c0-7.3,5.7-13.2,13.5-13.2s13.4,5.8,13.4,13v0.1c0,7.2-5.7,13.1-13.5,13.1
		C541.5,65.1,535.9,59.3,535.9,52.1z M556.9,52.1L556.9,52.1c0-4.4-3.2-8-7.7-8c-4.5,0-7.6,3.5-7.6,7.9v0.1c0,4.3,3.2,8,7.7,8
		S556.9,56.5,556.9,52.1z"/>
</g>
<g>
	<path fill="#FFFFFF" d="M14.8,51.4v-0.1c0-12.2,9.4-22.6,22.6-22.6c7.6,0,12.3,2.1,16.8,5.9l-4.9,5.8c-3.4-2.9-6.7-4.7-12.2-4.7
		c-8.1,0-14.2,7.1-14.2,15.4v0.1c0,9,5.9,15.6,14.9,15.6c4.1,0,7.9-1.3,10.6-3.3v-8.2H37.1v-6.7h18.6V67c-4.3,3.7-10.5,6.8-18.2,6.8
		C23.8,73.9,14.8,64.1,14.8,51.4z"/>
	<path fill="#FFFFFF" d="M66.3,51.4v-0.1c0-12.3,9.5-22.6,22.9-22.6s22.8,10.2,22.8,22.5v0.1c0,12.3-9.5,22.6-22.9,22.6
		C75.7,73.9,66.3,63.7,66.3,51.4z M104,51.4v-0.1c0-8.5-6.2-15.6-14.9-15.6c-8.7,0-14.7,6.9-14.7,15.4v0.1c0,8.5,6.2,15.6,14.9,15.6
		C97.9,66.8,104,59.9,104,51.4z"/>
	<path fill="#FFFFFF" d="M121.9,51.4v-0.1c0-12.3,9.5-22.6,22.9-22.6c13.4,0,22.8,10.2,22.8,22.5v0.1c0,12.3-9.5,22.6-22.9,22.6
		C131.3,73.9,121.9,63.7,121.9,51.4z M159.6,51.4v-0.1c0-8.5-6.2-15.6-14.9-15.6c-8.7,0-14.7,6.9-14.7,15.4v0.1
		c0,8.5,6.2,15.6,14.9,15.6C153.6,66.8,159.6,59.9,159.6,51.4z"/>
	<path fill="#FFFFFF" d="M179.5,29.4h16.3c13.7,0,23.2,9.4,23.2,21.7v0.1c0,12.3-9.5,21.9-23.2,21.9h-16.3V29.4z M195.8,66.1
		c9.2,0,15.2-6.2,15.2-14.7v-0.1c0-8.6-6-14.9-15.2-14.9h-8.6v29.7H195.8z"/>
	<path fill="#FFFFFF" d="M252.1,29.4h7.7v18.2h20.9V29.4h7.7v43.7h-7.7V54.7h-20.9v18.4h-7.7V29.4z"/>
	<path fill="#FFFFFF" d="M317.7,29.1h7.1L344,73.1h-8.1l-4.4-10.6h-20.7l-4.5,10.6h-7.9L317.7,29.1z M328.7,55.7l-7.6-17.5
		l-7.5,17.5H328.7z"/>
	<path fill="#FFFFFF" d="M354,29.4h19.6c5,0,8.9,1.4,11.4,3.9c1.9,1.9,2.9,4.3,2.9,7.2v0.1c0,5.2-3,8.1-6.3,9.7
		c5.1,1.8,8.7,4.7,8.7,10.6v0.1c0,7.8-6.4,12-16.2,12H354V29.4z M372.1,47.8c4.9,0,8.3-1.9,8.3-5.9v-0.1c0-3.4-2.8-5.6-7.7-5.6
		h-11.1v11.6H372.1z M374.3,66.3c5.2,0,8.4-2.1,8.4-6v-0.1c0-3.7-2.9-5.9-9-5.9h-12.2v12H374.3z"/>
	<path fill="#FFFFFF" d="M402.1,29.4h7.7v43.7h-7.7V29.4z"/>
	<path fill="#FFFFFF" d="M434.7,36.5h-13.9v-7.1h35.5v7.1h-13.9v36.6h-7.8V36.5z"/>
</g>
<g>
	<path fill="#FFFFFF" d="M581.9,10.9v81.8h-92.7V10.9H581.9 M585,7.8h-99v88h99V7.8L585,7.8z"/>
</g>
</svg>
